<?xml version="1.0" encoding="UTF-8" standalone="no"?>
<!-- Created with Inkscape (http://www.inkscape.org/) -->

<svg
   width="82.829124mm"
   height="32.362045mm"
   viewBox="0 0 82.829124 32.362045"
   version="1.1"
   id="svg5"
   inkscape:version="1.2.2 (b0a8486541, 2022-12-01)"
   sodipodi:docname="splaytoraid_kmk_dark.svg"
   xmlns:inkscape="http://www.inkscape.org/namespaces/inkscape"
   xmlns:sodipodi="http://sodipodi.sourceforge.net/DTD/sodipodi-0.dtd"
   xmlns="http://www.w3.org/2000/svg"
   xmlns:svg="http://www.w3.org/2000/svg"
   xmlns:rdf="http://www.w3.org/1999/02/22-rdf-syntax-ns#"
   xmlns:cc="http://creativecommons.org/ns#"
   xmlns:dc="http://purl.org/dc/elements/1.1/">
  <title
     id="title1744">Splaytoraid Logo</title>
  <sodipodi:namedview
     id="namedview7"
     pagecolor="#ffffff"
     bordercolor="#000000"
     borderopacity="0.25"
     inkscape:showpageshadow="2"
     inkscape:pageopacity="0.0"
     inkscape:pagecheckerboard="0"
     inkscape:deskcolor="#d1d1d1"
     inkscape:document-units="mm"
     showgrid="false"
     showguides="true"
     inkscape:zoom="1.4142136"
     inkscape:cx="34.294678"
     inkscape:cy="88.388345"
     inkscape:window-width="2560"
     inkscape:window-height="1369"
     inkscape:window-x="0"
     inkscape:window-y="0"
     inkscape:window-maximized="1"
     inkscape:current-layer="g1908" />
  <defs
     id="defs2" />
  <g
     inkscape:label="Layer 1"
     inkscape:groupmode="layer"
     id="layer1"
     transform="translate(-63.585432,-141.33862)">
    <g
       id="Layer_2"
       data-name="Layer 2"
       transform="matrix(0.23304451,0,0,0.23304451,79.444759,188.47343)"
       inkscape:label="kmk logo">
      <g
         id="Layer_1-2"
         data-name="Layer 1"
         transform="matrix(0.53032699,0,0,0.53032699,49.077479,-120.55107)">
        <rect
           class="cls-1"
           width="17.05933"
           height="107.78398"
           rx="8.5296602"
           id="rect149"
           style="fill:#38a3a5"
           x="0"
           y="0" />
        <path
           class="cls-2"
           d="m 4.26627,106.25185 v 0 A 8.52966,8.52966 0 0 1 1.14418,94.60011 L 44.66874,20.3556 a 8.52965,8.52965 0 0 1 11.65173,-3.12207 v 0 a 8.52966,8.52966 0 0 1 3.12207,11.65173 L 15.918,103.12977 a 8.52966,8.52966 0 0 1 -11.65173,3.12208 z"
           id="path151"
           style="fill:#63c196" />
        <path
           class="cls-3"
           d="m 75.45457,90.19653 v 0 A 8.52965,8.52965 0 0 1 63.67392,92.79005 L 36.15517,72.01905 A 8.52965,8.52965 0 0 1 33.56165,60.2384 v 0 A 8.52966,8.52966 0 0 1 45.3423,57.64492 l 27.51875,20.771 a 8.52965,8.52965 0 0 1 2.59352,11.78061 z"
           id="path153"
           style="fill:#cbe6c6" />
        <path
           class="cls-4"
           d="m 37.47788,72.45663 v 0 a 8.52965,8.52965 0 0 1 -5.28793,-10.842 L 43.9898,21.84431 a 8.52966,8.52966 0 0 1 10.84195,-5.28793 v 0 a 8.52966,8.52966 0 0 1 5.28793,10.842 L 48.31983,67.1687 a 8.52964,8.52964 0 0 1 -10.84195,5.28793 z"
           id="path155"
           style="fill:#91cd91" />
        <path
           class="cls-1"
           d="m 113.03077,40.84862 a 19.31629,19.31629 0 0 1 10.81445,3.21826 q 4.90722,3.21974 6.70117,10.07666 l -1.37305,0.94971 0.5293,-2.00488 a 15.06364,15.06364 0 0 1 4.80078,-6.2251 28.637,28.637 0 0 1 7.70117,-4.37891 23.12369,23.12369 0 0 1 8.28321,-1.63574 18.4663,18.4663 0 0 1 10.44726,2.74365 16.30268,16.30268 0 0 1 6.06641,7.333 26.34124,26.34124 0 0 1 1.95117,10.39356 v 30.7046 a 2.11508,2.11508 0 0 1 -0.58008,1.477 2.16312,2.16312 0 0 1 -3.05859,0 2.10835,2.10835 0 0 1 -0.582,-1.477 V 61.74071 a 22.82944,22.82944 0 0 0 -1.5293,-8.49414 13.31527,13.31527 0 0 0 -4.74805,-6.11963 14.261,14.261 0 0 0 -8.38867,-2.26855 18.877,18.877 0 0 0 -8.86328,2.26855 20.34051,20.34051 0 0 0 -7.12305,6.11963 14.14174,14.14174 0 0 0 -2.79492,8.49414 v 30.28272 a 2.12376,2.12376 0 0 1 -0.58008,1.477 2.16548,2.16548 0 0 1 -3.06054,0 2.11508,2.11508 0 0 1 -0.58008,-1.477 V 61.21288 a 22.72454,22.72454 0 0 0 -1.42383,-8.23 12.81977,12.81977 0 0 0 -4.48437,-5.90869 13.55644,13.55644 0 0 0 -8.125,-2.21582 18.095,18.095 0 0 0 -8.59961,2.21582 20.42557,20.42557 0 0 0 -6.91119,5.90871 13.47006,13.47006 0 0 0 -2.74316,8.23 v 30.81053 a 2.16539,2.16539 0 0 1 -2.11035,2.11035 1.974,1.974 0 0 1 -1.53027,-0.6333 2.11074,2.11074 0 0 1 -0.58008,-1.477 V 43.59227 a 2.16266,2.16266 0 0 1 2.11035,-2.11035 1.97606,1.97606 0 0 1 1.5293,0.63281 2.125,2.125 0 0 1 0.58105,1.47754 v 11.501 l -3.166,5.38135 a 15.47294,15.47294 0 0 1 1.794,-7.1753 22.7818,22.7818 0 0 1 4.80078,-6.27783 24.3575,24.3575 0 0 1 6.8584,-4.48437 19.66391,19.66391 0 0 1 7.96675,-1.6885 z"
           id="path157"
           style="fill:#38a3a5" />
        <path
           class="cls-1"
           d="m 189.106,94.13378 a 1.97542,1.97542 0 0 1 -1.53027,-0.6333 2.11508,2.11508 0 0 1 -0.58008,-1.477 V 18.16307 a 2.11963,2.11963 0 0 1 0.58008,-1.47754 2.16668,2.16668 0 0 1 3.06055,0 2.124,2.124 0 0 1 0.58007,1.47754 v 73.86036 a 2.11942,2.11942 0 0 1 -0.58007,1.477 1.9783,1.9783 0 0 1 -1.53028,0.63335 z m 36.61426,-53.28516 a 2.0239,2.0239 0 0 1 1.47656,0.6333 2.14835,2.14835 0 0 1 0.63379,1.58252 2.00432,2.00432 0 0 1 -0.73926,1.583 L 190.478,75.1411 190.26706,70.07616 224.34812,41.48192 a 1.91379,1.91379 0 0 1 1.3721,-0.6333 z m 0.63281,53.28516 a 2.211,2.211 0 0 1 -1.583,-0.73877 l -25.53423,-27.22266 3.165,-2.74365 25.42969,27.01221 a 2.14752,2.14752 0 0 1 0.63281,1.58252 1.74414,1.74414 0 0 1 -0.84472,1.583 2.80249,2.80249 0 0 1 -1.26562,0.52735 z"
           id="path159"
           style="fill:#38a3a5" />
      </g>
    </g>
    <g
       id="g1908"
       transform="translate(-6.4091529)"
       inkscape:label="splayytoraid"
       style="fill:#000000">
      <g
         aria-label="+"
         id="text314-8-3"
         style="font-weight:600;font-size:14.1111px;font-family:'URW Gothic';-inkscape-font-specification:'URW Gothic Semi-Bold';fill-rule:evenodd;stroke-width:0.2;stroke-linecap:square;stroke-linejoin:bevel"
         inkscape:label="+">
        <path
           d="m 111.39504,161.3578 q -0.22577,0 -0.381,-0.15523 -0.15522,-0.15522 -0.15522,-0.39511 v -2.21544 h -2.21544 q -0.22578,0 -0.381,-0.15522 -0.15522,-0.15522 -0.15522,-0.39511 0,-0.23989 0.15522,-0.39511 0.15522,-0.15523 0.381,-0.15523 h 2.21544 v -2.21544 q 0,-0.22578 0.15522,-0.381 0.15523,-0.15522 0.381,-0.15522 0.23989,0 0.39511,0.15522 0.15523,0.15522 0.15523,0.381 v 2.21544 h 2.21544 q 0.22578,0 0.381,0.16934 0.16933,0.15522 0.16933,0.381 0,0.22578 -0.16933,0.39511 -0.15522,0.15522 -0.381,0.15522 h -2.21544 v 2.21544 q 0,0.23989 -0.15523,0.39511 -0.15522,0.15523 -0.39511,0.15523 z"
           style="font-weight:normal;font-family:Comfortaa;-inkscape-font-specification:Comfortaa"
           id="path827" />
      </g>
      <g
         aria-label="ytoraid"
         id="text314-8"
         style="font-weight:600;font-size:14.1111px;font-family:'URW Gothic';-inkscape-font-specification:'URW Gothic Semi-Bold';fill-rule:evenodd;stroke-width:0.2;stroke-linecap:square;stroke-linejoin:bevel"
         inkscape:label="ytoraid">
        <path
           d="m 109.10752,144.68295 q 0.32456,0.127 0.32456,0.40922 0,0.127 -0.0564,0.254 l -4.57199,10.04711 q -0.127,0.32455 -0.40922,0.32455 -0.14111,0 -0.254,-0.0564 -0.32456,-0.127 -0.32456,-0.42334 0,-0.127 0.0564,-0.254 l 1.39699,-3.09033 v -0.0141 l -3.14677,-6.51933 q -0.0564,-0.11288 -0.0564,-0.254 0,-0.29633 0.31045,-0.42333 0.11289,-0.0564 0.254,-0.0564 0.29633,0 0.42333,0.29633 l 2.75167,5.79966 2.62466,-5.78555 q 0.14111,-0.31044 0.42333,-0.31044 0.127,0 0.254,0.0564 z"
           style="font-weight:normal;font-family:Comfortaa;-inkscape-font-specification:Comfortaa"
           id="path830" />
        <path
           d="m 114.20164,151.27284 q 0.22577,0 0.36688,0.15522 0.14112,0.15522 0.14112,0.39511 0,0.22578 -0.16934,0.381 -0.16933,0.15522 -0.42333,0.15522 h -0.29633 q -0.74789,0 -1.34056,-0.35278 -0.59266,-0.36689 -0.93133,-0.97366 -0.32456,-0.62089 -0.32456,-1.397 v -3.76767 h -0.91722 q -0.22578,0 -0.36689,-0.127 -0.127,-0.14111 -0.127,-0.33866 0,-0.21167 0.127,-0.33867 0.14111,-0.14111 0.36689,-0.14111 h 0.91722 v -2.18722 q 0,-0.23989 0.14111,-0.39511 0.15523,-0.15522 0.39512,-0.15522 0.23988,0 0.39511,0.15522 0.15522,0.15522 0.15522,0.39511 v 2.18722 h 1.59455 q 0.22578,0 0.35278,0.14111 0.14111,0.127 0.14111,0.33867 0,0.19755 -0.14111,0.33866 -0.127,0.127 -0.35278,0.127 h -1.59455 v 3.76767 q 0,0.71966 0.42333,1.18533 0.42333,0.45156 1.08656,0.45156 z"
           style="font-weight:normal;font-family:Comfortaa;-inkscape-font-specification:Comfortaa"
           id="path832" />
        <path
           d="m 119.98719,152.42995 q -1.11477,0 -2.01789,-0.508 -0.88899,-0.508 -1.39699,-1.397 -0.508,-0.90311 -0.508,-2.01789 0,-1.11478 0.508,-2.01789 0.508,-0.90311 1.39699,-1.41111 0.90312,-0.508 2.01789,-0.508 1.11478,0 2.00378,0.508 0.889,0.508 1.397,1.41111 0.52211,0.90311 0.52211,2.01789 0,1.11478 -0.508,2.01789 -0.508,0.889 -1.41111,1.397 -0.889,0.508 -2.00378,0.508 z m 0,-0.98778 q 0.81845,0 1.46756,-0.381 0.64911,-0.381 1.016,-1.04422 0.36688,-0.67734 0.36688,-1.50989 0,-0.84667 -0.36688,-1.50989 -0.36689,-0.67733 -1.016,-1.05833 -0.64911,-0.381 -1.46756,-0.381 -0.80433,0 -1.46755,0.381 -0.64911,0.381 -1.03011,1.05833 -0.36689,0.66322 -0.36689,1.50989 0,0.83255 0.36689,1.50989 0.381,0.66322 1.03011,1.04422 0.66322,0.381 1.46755,0.381 z"
           style="font-weight:normal;font-family:Comfortaa;-inkscape-font-specification:Comfortaa"
           id="path834" />
        <path
           d="m 129.51219,144.55595 q 0.59266,0 0.93133,0.15522 0.35278,0.15523 0.35278,0.43745 0,0.0847 -0.0141,0.127 -0.0564,0.19755 -0.18344,0.26811 -0.11289,0.0705 -0.32456,0.0705 -0.127,0 -0.43744,-0.0282 -0.11289,-0.0141 -0.33867,-0.0141 -1.05833,0 -1.73566,0.56445 -0.66322,0.56444 -0.66322,1.46755 v 4.21922 q 0,0.254 -0.14111,0.39511 -0.14111,0.14111 -0.39511,0.14111 -0.254,0 -0.39512,-0.14111 -0.14111,-0.14111 -0.14111,-0.39511 v -6.64633 q 0,-0.254 0.14111,-0.39511 0.14112,-0.14111 0.39512,-0.14111 0.254,0 0.39511,0.14111 0.14111,0.14111 0.14111,0.39511 v 0.62089 q 0.40922,-0.59267 1.04422,-0.91722 0.635,-0.32456 1.36878,-0.32456 z"
           style="font-weight:normal;font-family:Comfortaa;-inkscape-font-specification:Comfortaa"
           id="path836" />
        <path
           d="m 135.26952,144.57006 q 1.10066,0 1.98966,0.52211 0.90311,0.508 1.41111,1.41111 0.52211,0.90311 0.52211,2.00378 v 3.31611 q 0,0.22578 -0.15522,0.381 -0.15522,0.15522 -0.39511,0.15522 -0.23989,0 -0.39511,-0.14111 -0.15522,-0.15522 -0.15522,-0.39511 v -0.84667 q -0.49389,0.67734 -1.25589,1.07245 -0.762,0.381 -1.67922,0.381 -1.07245,0 -1.94733,-0.508 -0.86078,-0.52211 -1.36878,-1.41111 -0.49389,-0.90311 -0.49389,-2.00378 0,-1.10067 0.508,-2.00378 0.52211,-0.90311 1.41111,-1.41111 0.90311,-0.52211 2.00378,-0.52211 z m 0,6.87211 q 0.80433,0 1.45344,-0.381 0.64911,-0.381 1.016,-1.04422 0.381,-0.67734 0.381,-1.50989 0,-0.83256 -0.381,-1.49578 -0.36689,-0.67733 -1.016,-1.05833 -0.64911,-0.39511 -1.45344,-0.39511 -0.80434,0 -1.46756,0.39511 -0.64911,0.381 -1.03011,1.05833 -0.36689,0.66322 -0.36689,1.49578 0,0.83255 0.36689,1.50989 0.381,0.66322 1.03011,1.04422 0.66322,0.381 1.46756,0.381 z"
           style="font-weight:normal;font-family:Comfortaa;-inkscape-font-specification:Comfortaa"
           id="path838" />
        <path
           d="m 142.08518,152.35939 q -0.23989,0 -0.39511,-0.15522 -0.15522,-0.15522 -0.15522,-0.39511 v -6.61811 q 0,-0.23989 0.15522,-0.39511 0.15522,-0.15522 0.39511,-0.15522 0.23989,0 0.381,0.15522 0.15522,0.15522 0.15522,0.39511 v 6.61811 q 0,0.23989 -0.15522,0.39511 -0.14111,0.15522 -0.381,0.15522 z m -0.0141,-9.18633 q -0.32456,0 -0.55033,-0.22577 -0.21167,-0.22578 -0.21167,-0.55034 0,-0.33866 0.22578,-0.55033 0.22577,-0.21167 0.55033,-0.21167 0.31044,0 0.53622,0.21167 0.22578,0.21167 0.22578,0.55033 0,0.32456 -0.22578,0.55034 -0.22578,0.22577 -0.55033,0.22577 z"
           style="font-weight:normal;font-family:Comfortaa;-inkscape-font-specification:Comfortaa"
           id="path840" />
        <path
           d="m 152.80961,145.04984 q 0.0141,0.0423 0.0141,0.127 v 3.31611 q 0,1.10066 -0.52211,2.00378 -0.508,0.90311 -1.41111,1.42522 -0.889,0.508 -1.98966,0.508 -1.10067,0 -2.00378,-0.508 -0.889,-0.52211 -1.41111,-1.42522 -0.508,-0.90312 -0.508,-2.00378 0,-1.10067 0.49389,-1.98967 0.508,-0.90311 1.36877,-1.41111 0.87489,-0.52211 1.94734,-0.52211 0.91722,0 1.67922,0.39511 0.762,0.381 1.25589,1.05834 v -4.13456 q 0,-0.23988 0.15522,-0.39511 0.15522,-0.15522 0.39511,-0.15522 0.23989,0 0.381,0.15522 0.15522,0.15523 0.15522,0.39511 z m -3.90877,6.39233 q 0.80433,0 1.45344,-0.381 0.64911,-0.39511 1.016,-1.05833 0.381,-0.67734 0.381,-1.50989 0,-0.23989 -0.0141,-0.35278 -0.0141,-0.0282 -0.0141,-0.0706 -0.14112,-1.10067 -0.93134,-1.80623 -0.77611,-0.70555 -1.89088,-0.70555 -0.80434,0 -1.46756,0.381 -0.64911,0.381 -1.03011,1.05833 -0.36689,0.66322 -0.36689,1.49578 0,0.83255 0.36689,1.50989 0.381,0.66322 1.03011,1.05833 0.66322,0.381 1.46756,0.381 z"
           style="font-weight:normal;font-family:Comfortaa;-inkscape-font-specification:Comfortaa"
           id="path842" />
      </g>
      <g
         aria-label="splay"
         id="text314"
         style="font-weight:600;font-size:14.1111px;font-family:'URW Gothic';-inkscape-font-specification:'URW Gothic Semi-Bold';fill-rule:evenodd;stroke-width:0.2;stroke-linecap:square;stroke-linejoin:bevel"
         inkscape:label="splay">
        <path
           d="m 73.113138,152.42995 q -0.874888,0 -1.679221,-0.29634 -0.804333,-0.29633 -1.298221,-0.83255 -0.141111,-0.16934 -0.141111,-0.32456 0,-0.23989 0.225777,-0.42333 0.169334,-0.127 0.352778,-0.127 0.239889,0 0.409222,0.19755 0.338666,0.39512 0.888999,0.60678 0.564444,0.21167 1.241777,0.21167 0.987777,0 1.481665,-0.33867 0.493889,-0.33866 0.508,-0.889 0,-0.508 -0.493889,-0.84666 -0.493888,-0.33867 -1.566332,-0.508 -1.382887,-0.22578 -2.074331,-0.77611 -0.677333,-0.56445 -0.677333,-1.35467 0,-1.03011 0.790221,-1.59455 0.804333,-0.56445 2.003777,-0.56445 0.931332,0 1.622776,0.32456 0.691444,0.31044 1.114777,0.87489 0.112889,0.18344 0.112889,0.32455 0,0.23989 -0.225778,0.381 -0.09878,0.0706 -0.268111,0.0706 -0.296333,0 -0.493888,-0.21167 -0.691444,-0.79022 -1.890888,-0.79022 -0.77611,0 -1.241776,0.32455 -0.465667,0.31045 -0.465667,0.79023 0,0.508 0.437444,0.81844 0.437445,0.29633 1.552221,0.47978 1.509888,0.254 2.158999,0.83255 0.64911,0.56445 0.64911,1.41111 0,0.64911 -0.39511,1.15711 -0.381,0.508 -1.072444,0.79022 -0.691444,0.28223 -1.566332,0.28223 z"
           style="font-weight:normal;font-family:Comfortaa;-inkscape-font-specification:Comfortaa"
           id="path845" />
        <path
           d="m 81.94668,144.57006 q 1.100666,0 1.989666,0.52211 0.90311,0.508 1.41111,1.41111 0.52211,0.90311 0.52211,2.00378 0,1.10067 -0.507999,2.00378 -0.493889,0.889 -1.368777,1.41111 -0.860777,0.508 -1.933221,0.508 -0.917221,0 -1.679221,-0.381 -0.761999,-0.39511 -1.255888,-1.07245 v 4.13455 q 0,0.23989 -0.155222,0.39512 -0.155222,0.15522 -0.39511,0.15522 -0.239889,0 -0.395111,-0.15522 -0.141111,-0.15523 -0.141111,-0.39512 v -3.16088 q -0.01411,-0.0423 -0.01411,-0.127 v -3.31611 q 0,-1.10067 0.507999,-2.00378 0.522111,-0.90311 1.41111,-1.41111 0.903111,-0.52211 2.003776,-0.52211 z m 0,6.87211 q 0.804333,0 1.453444,-0.381 0.663222,-0.381 1.03011,-1.04422 0.381,-0.67734 0.381,-1.50989 0,-0.83256 -0.381,-1.49578 -0.366888,-0.67733 -1.03011,-1.05833 -0.649111,-0.39511 -1.453444,-0.39511 -0.804332,0 -1.453443,0.39511 -0.64911,0.381 -1.03011,1.05833 -0.366889,0.66322 -0.366889,1.49578 0,0.23989 0.01411,0.35278 0.01411,0.0282 0.01411,0.0705 0.141111,1.10067 0.917222,1.80622 0.790222,0.70556 1.904998,0.70556 z"
           style="font-weight:normal;font-family:Comfortaa;-inkscape-font-specification:Comfortaa"
           id="path847" />
        <path
           d="m 89.665463,152.35939 q -0.860777,0 -1.41111,-0.67733 -0.536222,-0.69145 -0.536222,-1.76389 v -8.04333 q 0,-0.23989 0.155222,-0.381 0.155223,-0.15522 0.381,-0.15522 0.239889,0 0.381,0.15522 0.155222,0.14111 0.155222,0.381 v 8.04333 q 0,0.60678 0.239889,0.98778 0.253999,0.381 0.634999,0.381 h 0.352778 q 0.211666,0 0.338666,0.15522 0.127,0.14111 0.127,0.381 0,0.23989 -0.183444,0.39511 -0.169334,0.14111 -0.451556,0.14111 z"
           style="font-weight:normal;font-family:Comfortaa;-inkscape-font-specification:Comfortaa"
           id="path849" />
        <path
           d="m 95.239346,144.57006 q 1.100666,0 1.989665,0.52211 0.90311,0.508 1.41111,1.41111 0.522111,0.90311 0.522111,2.00378 v 3.31611 q 0,0.22578 -0.155223,0.381 -0.155222,0.15522 -0.39511,0.15522 -0.239889,0 -0.395111,-0.14111 -0.155222,-0.15522 -0.155222,-0.39511 v -0.84667 q -0.493889,0.67734 -1.255888,1.07245 -0.762,0.381 -1.679221,0.381 -1.072444,0 -1.947332,-0.508 -0.860777,-0.52211 -1.368777,-1.41111 -0.493888,-0.90311 -0.493888,-2.00378 0,-1.10067 0.507999,-2.00378 0.522111,-0.90311 1.41111,-1.41111 0.903111,-0.52211 2.003777,-0.52211 z m 0,6.87211 q 0.804332,0 1.453443,-0.381 0.649111,-0.381 1.015999,-1.04422 0.381,-0.67734 0.381,-1.50989 0,-0.83256 -0.381,-1.49578 -0.366888,-0.67733 -1.015999,-1.05833 -0.649111,-0.39511 -1.453443,-0.39511 -0.804333,0 -1.467555,0.39511 -0.64911,0.381 -1.03011,1.05833 -0.366889,0.66322 -0.366889,1.49578 0,0.83255 0.366889,1.50989 0.381,0.66322 1.03011,1.04422 0.663222,0.381 1.467555,0.381 z"
           style="font-weight:normal;font-family:Comfortaa;-inkscape-font-specification:Comfortaa"
           id="path851" />
        <path
           d="m 107.31845,144.68295 q 0.32455,0.127 0.32455,0.40922 0,0.127 -0.0564,0.254 l -4.572,10.04711 q -0.127,0.32455 -0.40922,0.32455 -0.14111,0 -0.254,-0.0564 -0.32455,-0.127 -0.32455,-0.42334 0,-0.127 0.0564,-0.254 l 1.397,-3.09033 v -0.0141 l -3.14678,-6.51933 q -0.0564,-0.11288 -0.0564,-0.254 0,-0.29633 0.31044,-0.42333 0.11289,-0.0564 0.254,-0.0564 0.29634,0 0.42334,0.29633 l 2.75166,5.79966 2.62466,-5.78555 q 0.14112,-0.31044 0.42334,-0.31044 0.127,0 0.254,0.0564 z"
           style="font-weight:normal;font-family:Comfortaa;-inkscape-font-specification:Comfortaa"
           id="path853" />
      </g>
    </g>
  </g>
  <metadata
     id="metadata1742">
    <rdf:RDF>
      <cc:Work
         rdf:about="">
        <dc:title>Splaytoraid Logo</dc:title>
        <dc:creator>
          <cc:Agent>
            <dc:title>Moritz John</dc:title>
          </cc:Agent>
        </dc:creator>
        <dc:contributor>
          <cc:Agent>
            <dc:title>Moritz John</dc:title>
          </cc:Agent>
        </dc:contributor>
        <dc:date>2023-01-28</dc:date>
        <dc:description>Custom Logo for the Splaytoraid by Freya
Font: Comfortaa</dc:description>
      </cc:Work>
    </rdf:RDF>
  </metadata>
</svg>
